<svg width="200" height="200" viewBox="0 0 16 16" fill="none" xmlns="http://www.w3.org/2000/svg">
  <path fill-rule="evenodd" clip-rule="evenodd" d="M8 0C3.58 0 0 3.58 0 8C0 11.54 2.29 14.44 5.47 15.54C5.84 15.6 6 15.35 6 15.14V13.41C3.76 13.91 3.34 12.68 3.34 12.68C3.02 11.84 2.5 11.62 2.5 11.62C1.78 11.15 2.56 11.16 2.56 11.16C3.34 11.23 3.76 11.94 3.76 11.94C4.46 13.08 5.65 12.71 6.09 12.5C6.16 11.96 6.38 11.62 6.62 11.42C4.82 11.21 2.94 10.52 2.94 7.5C2.94 6.63 3.26 5.95 3.75 5.43C3.67 5.23 3.38 4.41 3.83 3.31C3.83 3.31 4.54 3.07 6 4.1C6.66 3.89 7.38 3.78 8.1 3.78C8.82 3.78 9.54 3.89 10.2 4.1C11.66 3.07 12.37 3.31 12.37 3.31C12.82 4.41 12.53 5.23 12.45 5.43C12.94 5.95 13.26 6.63 13.26 7.5C13.26 10.52 11.38 11.21 9.58 11.42C9.88 11.67 10.14 12.13 10.14 12.82V15.14C10.14 15.35 10.3 15.6 10.68 15.54C13.86 14.44 16.14 11.54 16.14 8C16.14 3.58 12.42 0 8 0Z" fill="#181616"/>
</svg>
